:SAMPLES-PER-SECOND 30
:FULLY-SPECIFIED
:DEGREES
289
root  36.3623 32.8644 -5.16375 2.21977 -63.0907 2.98441
RightUpLeg  -20.6884 -0.00606922 -16.0778
RightLeg  16.9877 -2.93773 -0.694123
RightFoot  6.76697 0.0398161 -0.295873
RightToes  -43.7121 -0.248795 -0.335117
Spine  6.43793 -0.97894 -0.680301
Spine1  12.4495 -1.90949 -1.74063
HEad  10.2305 -21.8695 17.5392
LeftShoulder1  0 -2.42657e-020 -4.95415e-022
LeftArm  -33.3791 5.3074 -84.4591
LeftForeArm  57.3873 -16.9266 -3.03163
LeftHand  0.282804 -9.10071 -3.92522
RightShoulder  0 2.42657e-020 1.07489e-018
RightArm  -40.0145 -9.38636 78.6033
RightForeArm  41.0162 31.6184 6.21767
RightHand  -0.907959 21.856 -4.33127
LeftUpLeg  -6.18146 4.9909 3.44599
LeftLeg  21.3249 -7.90705 -2.50775
LeftFoot  -8.89605 0.0925526 1.18974
LeftToes  -21.6417 1.33192e-006 1.13262e-007
290
root  35.7786 32.7415 -5.4982 1.4761 -63.4689 3.78395
RightUpLeg  -21.5331 -1.99385 -16.0848
RightLeg  18.7304 -2.87883 -0.774007
RightFoot  8.67834 0.0580297 -0.387185
RightToes  -45.9002 -0.267248 -0.345969
Spine  6.451 -0.980595 -0.722522
Spine1  12.4397 -1.88606 -1.90244
HEad  10.009 -21.4512 16.8247
LeftShoulder1  0 -2.42657e-020 -4.95415e-022
LeftArm  -33.8437 5.09713 -84.3111
LeftForeArm  58.1402 -16.3148 -2.91275
LeftHand  0.270692 -9.02883 -3.80028
RightShoulder  0 2.42657e-020 1.07489e-018
RightArm  -39.7749 -8.14349 78.4249
RightForeArm  41.6548 30.5526 5.95847
RightHand  -0.938304 21.8526 -4.48901
LeftUpLeg  -5.17279 4.89087 4.04081
LeftLeg  20.7814 -7.47704 -2.29488
LeftFoot  -9.02879 0.0885625 1.12165
LeftToes  -23.0015 1.33192e-006 1.13262e-007
291
root  35.0952 32.6256 -5.89016 1.17538 -64.0813 4.12239
RightUpLeg  -22.9446 -5.62509 -14.7505
RightLeg  21.8862 -2.82884 -0.931827
RightFoot  10.5435 0.0798089 -0.48735
RightToes  -46.2963 -0.270632 -0.347857
Spine  6.45796 -1.0245 -0.656422
Spine1  12.4165 -1.94399 -1.89479
HEad  9.94156 -20.6526 15.9074
LeftShoulder1  0 -2.42657e-020 -4.95415e-022
LeftArm  -34.5088 4.94275 -84.3276
LeftForeArm  59.094 -15.572 -2.76934
LeftHand  0.280708 -9.12559 -3.88924
RightShoulder  0 2.42657e-020 1.07489e-018
RightArm  -39.4334 -6.86871 78.2773
RightForeArm  42.2756 29.6746 5.74916
RightHand  -0.993273 21.9274 -4.75534
LeftUpLeg  -3.89999 4.62279 4.94854
LeftLeg  19.9475 -6.66364 -1.94148
LeftFoot  -9.04993 0.076973 0.972584
LeftToes  -24.2185 1.33192e-006 1.13262e-007
292
root  34.344 32.529 -6.40086 2.43088 -64.9341 3.07591
RightUpLeg  -24.9584 -6.94235 -12.6122
RightLeg  25.6738 -0.48901 -0.202369
RightFoot  9.12812 0.0322074 -0.0259133
RightToes  -44.1427 -0.252394 -0.337308
Spine  6.36832 -1.03927 -0.346216
Spine1  12.1974 -1.95339 -1.45584
HEad  9.95291 -19.7634 14.949
LeftShoulder1  0 -2.42657e-020 -4.95415e-022
LeftArm  -35.6 4.87281 -84.6432
LeftForeArm  60.2843 -14.7729 -2.61585
LeftHand  0.280117 -9.20913 -3.84983
RightShoulder  0 2.42657e-020 1.07489e-018
RightArm  -39.1844 -5.6493 78.1013
RightForeArm  42.8899 28.99 5.58838
RightHand  -1.02902 21.9305 -4.93876
LeftUpLeg  -3.00982 4.7296 6.64383
LeftLeg  19.4225 -5.83672 -1.64409
LeftFoot  -8.86112 0.0617209 0.796557
LeftToes  -26.2707 1.33192e-006 1.13262e-007
293
root  33.5246 32.437 -6.96933 4.40471 -65.7626 1.29724
RightUpLeg  -26.6358 -5.86685 -10.3559
RightLeg  29.0506 -0.549155 -0.268191
RightFoot  7.95539 0.0284376 -0.0314113
RightToes  -40.8026 -0.224926 -0.319611
Spine  6.20958 -1.09744 0.0733162
Spine1  11.869 -2.04549 -0.827449
HEad  10.2423 -18.7589 13.9451
LeftShoulder1  0 -2.42657e-020 -4.95415e-022
LeftArm  -36.8702 4.97204 -85.0984
LeftForeArm  61.4019 -14.0627 -2.48023
LeftHand  0.308319 -9.32763 -4.15104
RightShoulder  0 2.42657e-020 1.07489e-018
RightArm  -39.0391 -4.66001 77.9972
RightForeArm  43.4417 28.2275 5.41204
RightHand  -1.08063 21.9086 -5.21036
LeftUpLeg  -2.01446 5.15591 8.79381
LeftLeg  18.7913 -5.30147 -1.43125
LeftFoot  -8.53946 0.0494055 0.661731
LeftToes  -28.4006 1.33192e-006 1.13262e-007
294
root  32.6219 32.3343 -7.5358 6.3179 -65.7188 -0.784485
RightUpLeg  -27.0133 -4.82885 -8.22246
RightLeg  31.7793 -1.48141 -0.801314
RightFoot  5.10297 0.0211049 -0.0960516
RightToes  -39.3814 -0.213561 -0.311601
Spine  6.18604 -1.41776 0.594474
Spine1  11.818 -2.67159 -0.0193503
HEad  10.6441 -17.7967 12.9077
LeftShoulder1  0 -2.42657e-020 -4.95415e-022
LeftArm  -37.5369 4.92124 -85.6232
LeftForeArm  61.1466 -13.8259 -2.43662
LeftHand  0.345926 -9.10836 -4.71436
RightShoulder  0 2.42657e-020 1.07489e-018
RightArm  -38.9853 -3.60504 77.8933
RightForeArm  43.9223 27.2992 5.20109
RightHand  -1.15402 21.7224 -5.64099
LeftUpLeg  -0.963334 4.90579 11.1451
LeftLeg  18.5576 -4.84588 -1.28763
LeftFoot  -8.05436 0.0374782 0.532321
LeftToes  -30.9497 1.33192e-006 1.13262e-007
295
root  31.7154 32.2499 -8.05405 7.18536 -64.6694 -2.0033
RightUpLeg  -26.6132 -6.01872 -6.41941
RightLeg  34.0124 -1.11646 -0.666443
RightFoot  2.41466 0.00789366 0.00299795
RightToes  -38.7423 -0.208515 -0.307908
Spine  6.22997 -2.0062 1.08719
Spine1  11.866 -3.85962 0.7442
HEad  11.117 -17.0258 11.9117
LeftShoulder1  0 -2.42657e-020 -4.95415e-022
LeftArm  -38.0636 4.61613 -86.3096
LeftForeArm  61.2133 -13.6569 -2.40499
LeftHand  0.3498 -9.08717 -4.77324
RightShoulder  0 2.42657e-020 1.07489e-018
RightArm  -38.6533 -2.78364 77.6177
RightForeArm  44.3038 26.2034 4.95699
RightHand  -1.19823 21.4921 -5.93919
LeftUpLeg  -0.627342 4.10636 13.1584
LeftLeg  19.5012 -4.51411 -1.27978
LeftFoot  -7.10871 0.0240026 0.386411
LeftToes  -33.9801 1.33192e-006 1.13262e-007
